<svg width="28" height="28" viewBox="0 0 28 28" fill="none" xmlns="http://www.w3.org/2000/svg">
<path fill-rule="evenodd" clip-rule="evenodd" d="M14 0C9.65234 0 6.125 3.52734 6.125 7.875C6.125 12.2227 9.65234 15.75 14 15.75C18.3477 15.75 21.875 12.2227 21.875 7.875C21.875 3.52734 18.3477 0 14 0ZM20.125 7.875C20.125 4.49531 17.3797 1.75 14 1.75C10.6203 1.75 7.875 4.49531 7.875 7.875C7.875 11.2547 10.6203 14 14 14C17.3797 14 20.125 11.2547 20.125 7.875ZM26.25 24.5C26.25 21.607 23.893 19.25 21 19.25C18.4789 19.25 17.6124 19.5068 16.8182 19.7421C16.1464 19.9412 15.5263 20.125 14 20.125C12.4796 20.125 11.8586 19.9414 11.1855 19.7425C10.389 19.507 9.5194 19.25 7 19.25C4.10703 19.25 1.75 21.607 1.75 24.5V26.25H26.25V24.5ZM16.5195 18.016C17.2919 17.7745 18.1698 17.5 21 17.5C24.8664 17.5 28 20.6336 28 24.5V26.25C28 27.218 27.218 28 26.25 28H1.75C0.782031 28 0 27.218 0 26.25V24.5C0 20.6336 3.13359 17.5 7 17.5C9.82867 17.5 10.7098 17.7748 11.4845 18.0164C12.0922 18.2059 12.6345 18.375 14 18.375C15.3713 18.375 15.9128 18.2057 16.5195 18.016Z" fill="black"/>
</svg>
