<svg width="32" height="28" viewBox="0 0 32 28" fill="none" xmlns="http://www.w3.org/2000/svg">
<path fill-rule="evenodd" clip-rule="evenodd" d="M7.07 3.5H30.187C31.0196 3.5 31.6418 4.26513 31.472 5.0802L29.1023 16.4552C28.9755 17.0638 28.4391 17.5 27.8174 17.5H9.695L10.3512 21H26.5414C27.1666 21 27.6731 21.4315 27.8148 21.9916C28.4685 22.6275 28.8751 23.516 28.8751 24.5C28.8751 26.433 27.308 28 25.3751 28C23.4421 28 21.8751 26.433 21.8751 24.5C21.8744 23.8855 22.0363 23.2817 22.3444 22.75H14.4056C14.7137 23.2817 14.8757 23.8855 14.875 24.5C14.875 26.433 13.308 28 11.375 28C9.44202 28 7.875 26.433 7.875 24.5C7.875 23.5933 8.2198 22.7672 8.78538 22.1455L4.96125 1.75H0.65625C0.293836 1.75 0 1.45616 0 1.09375V0.65625C0 0.293836 0.293836 0 0.65625 0H5.32448C5.95607 0 6.49808 0.449859 6.61451 1.07062L7.07 3.5ZM11.375 26.25C12.34 26.25 13.125 25.465 13.125 24.5C13.125 23.535 12.34 22.75 11.375 22.75C10.41 22.75 9.625 23.535 9.625 24.5C9.625 25.465 10.41 26.25 11.375 26.25ZM25.375 26.25C24.41 26.25 23.625 25.465 23.625 24.5C23.625 23.535 24.41 22.75 25.375 22.75C26.34 22.75 27.125 23.535 27.125 24.5C27.125 25.465 26.34 26.25 25.375 26.25ZM9.36687 15.75H27.4617L29.6492 5.25H7.39813L9.36687 15.75Z" fill="black"/>
</svg>
